<?xml version="1.0" encoding="utf-8"?>
<!-- Generator: Adobe Illustrator 25.4.1, SVG Export Plug-In . SVG Version: 6.00 Build 0)  -->
<svg version="1.1" id="Calque_1" xmlns="http://www.w3.org/2000/svg" xmlns:xlink="http://www.w3.org/1999/xlink" x="0px" y="0px"
	 viewBox="0 0 30 30" style="enable-background:new 0 0 30 30;" xml:space="preserve">
<style type="text/css">
	.st0{fill:#0065FC;}
</style>
<path class="st0" d="M23.6,27.3c-0.5-0.4-1-0.9-1.5-1.5c-0.5-0.6-0.9-1.4-1.4-2.2c-0.4-0.9-0.8-1.8-1.2-2.8
	c-0.3-0.8-0.5-1.5-0.8-2.1s-0.5-1.2-0.6-1.6c1.4-0.9,2.5-2,3.2-3.4c0.8-1.4,1.2-2.8,1.2-4.5c0-1.4-0.2-2.6-0.8-3.6
	c-0.5-1-1.2-1.8-2-2.4c-0.8-0.6-1.7-1.1-2.6-1.4c-1-0.3-1.9-0.4-2.8-0.4c-0.3,0-0.5,0-0.7,0c-0.2,0-0.5,0-0.7,0
	c0-0.6-0.3-0.8-0.7-0.7c-0.3,0-0.6,0.2-0.9,0.4c-0.3,0.2-0.6,0.4-0.8,0.7C9.8,1.9,9.2,2.1,8.7,2.4c-0.5,0.2-1,0.5-1.5,0.8
	C6.9,3.4,6.6,3.7,6.3,4C6,4.3,5.7,4.6,5.5,5.1C5.3,5.5,5.1,5.9,5,6.4C4.9,6.8,4.9,7.3,5,7.7c0.1,0.4,0.3,0.7,0.4,1
	C5.5,9,5.7,9.2,5.9,9.5c0.2,0.2,0.5,0.4,0.8,0.4c0.2-1,0.5-1.9,1.1-2.6C8.3,6.6,8.9,6,9.6,5.5c0,0.7-0.1,1.5-0.1,2.4
	c0,0.9-0.1,1.8-0.1,2.8c0,1-0.1,2-0.1,3c0,1-0.1,2-0.1,3H8.6c-0.4,0-0.8,0-1.1-0.1c0,0.1-0.1,0.3-0.1,0.6c0,0.2,0,0.4,0.1,0.7
	c0,0.3,0.1,0.6,0.3,1c0.2,0,0.4,0,0.6,0.1c0.2,0,0.5,0,0.7,0.1c0,0.2,0,0.3,0,0.5c0,0.2,0,0.3,0,0.5c-0.1,1.5-0.1,2.7-0.1,3.7
	s0,1.8,0,2.4c0,0.6,0.1,1.1,0.2,1.5c0.1,0.4,0.2,0.7,0.3,1.1c0.3,0,0.7,0,1.1-0.1c0.3-0.1,0.7-0.2,1.1-0.3c0.5-0.2,0.9-0.4,1.4-0.8
	c-0.1-0.2-0.2-0.5-0.2-0.8c0-0.3-0.1-0.6-0.1-0.9c0-0.3-0.1-0.7-0.1-1.2c0-0.5,0-1-0.1-1.7c-0.1-1.1-0.1-2.3-0.1-3.8
	c1.1-0.1,2.1-0.3,3-0.6c0.2,0.4,0.3,0.9,0.6,1.5c0.2,0.6,0.5,1.2,0.7,1.9c0.2,0.8,0.5,1.5,0.8,2.4c0.3,0.8,0.6,1.6,1,2.3
	c0.4,0.7,0.8,1.3,1.3,1.9c0.5,0.5,1.1,0.8,1.8,1c0.5,0.1,1,0.1,1.4,0c0.4,0,0.8-0.2,1.2-0.3c0.4-0.2,0.8-0.5,1-1
	C24.6,27.9,24.1,27.7,23.6,27.3z M16.6,14.9c-0.7,0.5-1.4,0.8-2.2,1.1c-0.8,0.2-1.4,0.4-2.1,0.5c0-0.9,0-1.8,0-2.8
	c0-0.9,0-1.8,0-2.7c0-0.8,0.1-1.6,0.1-2.3c0-0.7,0-1.4,0-1.9c0-0.9,0-1.7,0.1-2.4c0.1,0,0.3,0,0.4,0h0.3c0.6,0,1.3,0.1,1.9,0.3
	c0.6,0.2,1.2,0.5,1.8,1c0.5,0.4,1,1,1.3,1.7c0.4,0.7,0.5,1.5,0.5,2.5c0,1.3-0.2,2.3-0.7,3.2C17.8,13.7,17.3,14.4,16.6,14.9z"/>
</svg>
